# xmcd
#
# Track frame offsets:
#	150
#	18280
#	41478
#	74195
#	95870
#	123060
#	144003
#	164805
#	190075
#	208300
#	222793
#	243528
#
# Disc length: 3587 seconds
#
# Revision: 1
# Processed by: cddbd v1.4PL0 Copyright (c) Steve Scherf et al.
# Submitted via: EasyCDDAExtractor 6.0.0.1
#
DISCID=b50e010c
DTITLE=Bobby Jonz - In The Mood For Love
DYEAR=1997
DGENRE=Blues
TTITLE0=In The Moon For Love
TTITLE1=Sneaking And Freaking
TTITLE2=Innocent Til Proven Guilty
TTITLE3=Candy
TTITLE4=Long Distance Love
TTITLE5=Baby You Baby
TTITLE6=Pick Up The Pieces
TTITLE7=Home Is Not The Same
TTITLE8=Hey Bartender
TTITLE9=I Want To Write A Song
TTITLE10=Me And You
TTITLE11=Home Is Not The Same [Instrumental Version]
EXTD=
EXTT0=
EXTT1=
EXTT2=
EXTT3=
EXTT4=
EXTT5=
EXTT6=
EXTT7=
EXTT8=
EXTT9=
EXTT10=
EXTT11=
PLAYORDER=
